<?xml version="1.0" encoding="UTF-8"?><svg id="Layer_2" xmlns="http://www.w3.org/2000/svg" viewBox="0 0 33.77 33.77"><defs><style>.cls-1{fill:#69e256;stroke-width:0px;}</style></defs><g id="Layer_6"><path class="cls-1" d="m33.77,2.16l-2.16-2.16-2.49,2.49-20.89,2.84v.05s-.03,0-.03,0v18.03l-.59.59c-.31-.07-.62-.12-.94-.12-2.54,0-4.6,2.06-4.6,4.6,0,.33.04.65.1.96l-2.17,2.17,2.16,2.16,1.68-1.68c.78.61,1.75.99,2.82.99,2.49,0,4.51-1.99,4.58-4.47h.01v-3.94l15.7-15.7v12.64c-.48-.17-.99-.28-1.53-.28-2.54,0-4.6,2.06-4.6,4.6s2.06,4.6,4.6,4.6,4.51-1.99,4.58-4.47h.01V5.91l3.75-3.75Zm-22.51,7.71l12.22-1.74-12.22,12.22v-10.48Z"/></g></svg>