<?xml version="1.0" encoding="UTF-8"?><svg id="Layer_2" xmlns="http://www.w3.org/2000/svg" viewBox="0 0 27.96 30.7"><defs><style>.cls-1{fill:#69e256;stroke-width:0px;}</style></defs><g id="Layer_6"><path class="cls-1" d="m27.89.04v-.04S6.16,2.96,6.16,2.96v.05s-.03,0-.03,0v18.78c-.48-.17-.99-.28-1.53-.28-2.54,0-4.6,2.06-4.6,4.6s2.06,4.6,4.6,4.6,4.51-1.99,4.58-4.47h.01V7.5l15.7-2.23v13.98c-.48-.17-.99-.28-1.53-.28-2.54,0-4.6,2.06-4.6,4.6s2.06,4.6,4.6,4.6,4.51-1.99,4.58-4.47h.01V.02l-.07.02Z"/></g></svg>